<svg width="23" height="15" viewBox="0 0 23 15" fill="none" xmlns="http://www.w3.org/2000/svg">
<path d="M22.6665 7.53345C22.6665 7.96809 22.3142 8.32038 21.8796 8.32038H2.92925L7.8933 13.2799C8.04428 13.4308 8.12206 13.6321 8.12206 13.8334C8.12206 14.0348 8.04428 14.2361 7.8933 14.387C7.58677 14.6936 7.08807 14.6936 6.78154 14.387L0.486115 8.08704C0.193304 7.79423 0.193304 7.27266 0.486115 6.97528L6.78611 0.679853C7.09265 0.373317 7.59134 0.373317 7.89788 0.679853C8.20441 0.986389 8.20441 1.48508 7.89788 1.79162L2.9384 6.7511H21.8842C22.3188 6.74652 22.6665 7.09881 22.6665 7.53345Z" fill="black"/>
</svg>
