<svg width="23" height="15" viewBox="0 0 23 15" fill="none" xmlns="http://www.w3.org/2000/svg">
<path d="M22.667 7.53345C22.667 7.96809 22.3147 8.32038 21.8801 8.32038H2.92974L7.89379 13.2799C8.04477 13.4308 8.12255 13.6321 8.12255 13.8334C8.12255 14.0348 8.04477 14.2361 7.89379 14.387C7.58725 14.6936 7.08856 14.6936 6.78203 14.387L0.486603 8.08704C0.193792 7.79423 0.193792 7.27266 0.486603 6.97528L6.7866 0.679853C7.09314 0.373317 7.59183 0.373317 7.89837 0.679853C8.2049 0.986389 8.2049 1.48508 7.89837 1.79162L2.93889 6.7511H21.8846C22.3193 6.74652 22.667 7.09881 22.667 7.53345Z" fill="black"/>
</svg>
